<svg version="1.1" xmlns="http://www.w3.org/2000/svg" xmlns:xlink="http://www.w3.org/1999/xlink" width="259.83736" height="103.37682" viewBox="0,0,259.83736,103.37682"><g transform="translate(-123.86291,-125.16644)"><g data-paper-data="{&quot;isPaintingLayer&quot;:true}" fill-rule="nonzero" stroke="none" stroke-linecap="butt" stroke-linejoin="miter" stroke-miterlimit="10" stroke-dasharray="" stroke-dashoffset="0" style="mix-blend-mode: normal"><path d="M142.5,221c-41.93345,-16.97234 0,-31.70275 0,-46.91667c0,-14.40896 -15.35546,-36.25725 0,-42.08333c15.35546,-5.82607 73.84775,0 110.91669,0c37.26338,0 71.13271,-15.37551 112.08331,0c40.95061,15.37551 0,28.46884 0,42.08333c0,15.74214 16.77079,39.56884 0,46.91667c-16.77079,7.34783 -70.68164,0 -107.08331,0c-37.87332,0 -73.98324,16.97234 -115.91669,0z" fill="#3383c9" stroke-width="0"/><path d="M359,145c0.723,3.056 -1.022,3.644 -1,6c-10.057,3.356 -20.072,-1.302 -27,2c-0.136,8.016 0.851,10.949 0,18c10.088,-1.101 13.51,-3.322 25,-2c0.319,2.348 1.58,3.753 1,7c-6.799,1.429 -17.091,3.473 -23,0c-1.249,10.666 0.068,21.079 0,34c-2.667,0 -5.333,0 -8,0c1.798,-22.675 -4.994,-45.458 -1,-64c10.796,-1.965 22.765,-1.692 34,-1z" fill="#ff9400" stroke-width="1"/><path d="M359,140c1,0 2,0 3,0c0,2.667 0,5.333 0,8c-2.236,0.431 -0.405,4.928 -1,7c-6.44,-2.107 -3.564,5.103 -7,6c-7.564,-2.398 -13.296,0.192 -20,0c0,2 0,4 0,6c7.033,-1.28 17.208,-1.934 27,-1c-0.888,8.189 -2.965,12.406 -6,20c-5.977,-2.25 -10.999,0.48 -18,0c-1.519,12.844 3.051,24.079 -3,34c-5.333,0 -10.667,0 -16,0c-0.359,-12.308 1.171,-26.504 -2,-36c0,-12 0,-24 0,-36c7.979,1.938 4.456,-4.398 6,-7c7.875,1.329 27.553,2.179 37,-1zM325,146c-3.994,18.542 2.798,41.325 1,64c2.667,0 5.333,0 8,0c0.068,-12.921 -1.249,-23.334 0,-34c5.909,3.473 16.201,1.429 23,0c0.58,-3.247 -0.681,-4.652 -1,-7c-11.49,-1.322 -14.912,0.899 -25,2c0.851,-7.051 -0.136,-9.984 0,-18c6.928,-3.302 16.943,1.356 27,-2c-0.022,-2.356 1.723,-2.944 1,-6c-11.235,-0.692 -23.204,-0.965 -34,1z" fill="#000000" stroke-width="1"/><path d="M285.19056,140.23942c3.9408,-0.244 7.9062,0 11.8597,0c20.0201,0.1813 26.5006,23.8796 12.7068,34.7321c4.5271,7.6148 6.6661,17.6176 12.7069,23.7194c0,1.1292 0,2.2593 0,3.3885c-1.3681,-0.238 -1.4587,0.8006 -2.5414,0.8471c0.0941,2.1644 1.5528,2.965 2.5414,4.2357c0,0.8471 0,1.6942 0,2.5413c-5.5681,1.7731 -9.2946,5.3886 -14.4011,7.6241c-5.336,-7.9358 -6.971,-19.5719 -12.7069,-27.1079c-4.1534,4.8726 1.0234,14.2012 0,21.1781c-0.2566,1.7442 -2.6438,0.2287 -3.2614,1.2707c-0.9937,1.5358 0.6752,4.4796 -0.9742,5.5063c-3.1521,1.956 -8.1408,0.3303 -11.0126,1.6942c-1.4121,0 -2.8234,0 -4.2356,0c-3.153,-24.3777 -3.053,-43.6489 -5.9299,-66.0756c0,-1.4122 -0.914,-3.1632 0,-4.2357c1.4029,-1.6332 4.555,-1.0885 5.8452,-2.8802c1.0242,-1.3156 -1.352,-4.0585 0.0847,-5.0827c2.5549,-1.8162 6.3924,-0.8946 9.3184,-1.3554zM305.52146,145.32212c-7.9282,-0.7632 -18.2106,-4.699 -27.1079,0c3.5545,25.6831 0.8539,43.9149 5.0827,64.3814c3.6376,-0.033 6.2374,-1.1046 8.4712,-2.5413c-1.2673,-11.5319 -8.0883,-27.4299 7.6242,-27.9551c2.222,10.2019 9.0345,15.8149 11.8597,25.4137c2.9556,-1.28 6.0747,-2.3965 7.6241,-5.0828c-5.6096,-7.3792 -9.0888,-16.8899 -13.554,-25.4137c9.3091,-5.8163 11.6031,-23.6678 0,-28.8022z" fill="#000000" stroke-width="0.84713"/><path d="M305.52146,174.12432c4.4652,8.5238 7.9444,18.0345 13.554,25.4137c-1.5494,2.6863 -4.6685,3.8028 -7.6241,5.0828c-2.8252,-9.5988 -9.6377,-15.2118 -11.8597,-25.4137c-15.7125,0.5252 -8.8915,16.4232 -7.6242,27.9551c-2.2338,1.4367 -4.8336,2.5083 -8.4712,2.5413c-4.2288,-20.4665 -1.5282,-38.6983 -5.0827,-64.3814c8.8973,-4.699 19.1797,-0.7632 27.1079,0c11.6031,5.1344 9.3091,22.9859 0,28.8022zM286.88476,150.40492c1.4486,10.135 0.6574,15.5794 2.5414,23.7194c9.514,-2.6277 17.6998,-6.5847 18.6367,-17.7896c-3.5511,-5.3411 -12.7035,-8.1705 -21.1781,-5.9298z" fill="#ff9400" stroke-width="0.84713"/><path d="M308.06286,156.33472c-0.9369,11.2049 -9.1227,15.1619 -18.6367,17.7896c-1.884,-8.14 -1.0928,-13.5844 -2.5414,-23.7194c8.4746,-2.2407 17.627,0.5887 21.1781,5.9298zM291.12036,169.88872c4.0103,-2.2025 10.5552,-1.8696 9.3184,-9.3183c-2.0797,-1.8739 -5.6673,-2.239 -9.3184,-2.5414c0,3.9535 0,7.9062 0,11.8597z" fill="#000000" stroke-width="0.84713"/><path d="M250.4538,135.9115c0.6209,0 1.2408,0 1.8616,0c-0.4198,1.52 5.0727,1.52 4.6538,0c0.31,0 0.6208,0 0.9308,0c0.0251,0.9057 1.1393,0.7223 1.8615,0.9308c-0.4635,7.9813 5.391,13.3147 3.7231,19.5462c8.2494,13.4682 9.2528,34.1834 19.5462,45.6076c0,0.6209 0,1.2408 0,1.8616c-5.3036,-0.2066 -0.5166,4.8363 -2.7923,6.5154c-2.5513,3.0333 -9.9872,1.182 -12.1,4.6538c-0.9308,0 -1.8616,0 -2.7924,0c-3.7593,-9.0759 -3.1497,-17.7423 -8.3769,-26.0615c-12.8371,-2.2879 -12.8074,8.2894 -14.8923,16.7538c-2.2003,2.1436 -4.3225,4.3644 -4.6538,8.3769c-5.1463,-0.4393 -10.608,-0.5612 -14.8923,-1.8615c0,-0.6208 0,-1.2407 0,-1.8615c5.6181,-21.995 11.2018,-44.0245 15.823,-67.0154c8.9429,2.4274 4.7041,-8.3267 12.1,-7.4462zM246.7308,140.5654c-4.4715,21.5901 -10.7895,41.3336 -14.8923,63.2923c3.6002,-0.498 4.544,1.6614 8.3769,0.9308c1.2602,-8.0475 3.7286,-14.8868 4.6538,-23.2693c6.2641,0.0587 10.0803,-2.3297 15.8231,-2.7923c2.8314,8.9577 7.0953,16.4839 10.2385,25.1308c3.4513,0.659 3.9948,-1.5898 7.4461,-0.9308c-3.441,-8.8442 -8.6161,-19.2334 -9.3077,-27.9231c-6.412,-9.101 -8.1172,-22.909 -11.1692,-35.3692c-5.3808,0.5659 -8.1387,-1.9844 -11.1692,0.9308z" fill="#000000" stroke-width="0.93077"/><path d="M252.3154,135.9115c1.5516,0 3.1022,0 4.6538,0c0.4189,1.52 -5.0736,1.52 -4.6538,0z" fill="none" stroke-width="0.93077"/><path d="M257.9,135.9115c8.3769,0 16.7538,0 25.1308,0c0,22.0285 0,44.0561 0,66.0846c-10.2934,-11.4242 -11.2968,-32.1394 -19.5462,-45.6076c1.6679,-6.2315 -4.1866,-11.5649 -3.7231,-19.5462c-0.7222,-0.2085 -1.8364,-0.0251 -1.8615,-0.9308z" fill="none" stroke-width="0.93077"/><path d="M257.9,139.6346c3.052,12.4602 4.7572,26.2682 11.1692,35.3692c0.6916,8.6897 5.8667,19.0789 9.3077,27.9231c-3.4513,-0.659 -3.9948,1.5898 -7.4461,0.9308c-3.1432,-8.6469 -7.4071,-16.1731 -10.2385,-25.1308c-5.7428,0.4626 -9.559,2.851 -15.8231,2.7923c-0.9252,8.3825 -3.3936,15.2218 -4.6538,23.2693c-3.8329,0.7306 -4.7767,-1.4288 -8.3769,-0.9308c4.1028,-21.9587 10.4208,-41.7022 14.8923,-63.2923c3.0305,-2.9152 5.7884,-0.3649 11.1692,-0.9308zM247.6615,175.9346c5.2626,-1.3794 8.2076,-1.923 13.0308,-0.9308c-1.1281,-8.8004 -4.9163,-14.9397 -6.5154,-23.2692c-0.2057,-0.7251 -0.78,-1.0825 -1.8615,-0.9308c-2.7551,6.6476 -4.9247,18.5251 -4.6539,25.1308z" fill="#ff9400" stroke-width="0.93077"/><path d="M252.3154,150.8038c1.0815,-0.1517 1.6558,0.2057 1.8615,0.9308c1.5991,8.3295 5.3873,14.4688 6.5154,23.2692c-4.8232,-0.9922 -7.7682,-0.4486 -13.0308,0.9308c-0.2708,-6.6057 1.8988,-18.4832 4.6539,-25.1308zM252.3154,171.2808c0.1489,-2.9413 0.0326,-5.6172 -1.8616,-6.5154c0.6786,2.1138 -1.6772,7.2618 1.8616,6.5154z" fill="#000000" stroke-width="0.93077"/><path d="M250.4538,164.7654c1.8942,0.8982 2.0105,3.5741 1.8616,6.5154c-3.5388,0.7464 -1.183,-4.4016 -1.8616,-6.5154z" fill="none" stroke-width="0.93077"/><path d="M265.3461,215.0269c-13.9634,-0.618 -30.4026,1.2379 -42.8153,-0.9308c0,-0.6208 0,-1.2407 0,-1.8615c4.2843,1.3003 9.746,1.4222 14.8923,1.8615c0.3313,-4.0125 2.4535,-6.2333 4.6538,-8.3769c2.0849,-8.4644 2.0552,-19.0417 14.8923,-16.7538c5.2272,8.3192 4.6176,16.9856 8.3769,26.0615z" fill="none" stroke-width="0.93077"/><path d="M283.0308,203.8577c0,3.7231 0,7.4461 0,11.1692c-4.9638,0 -9.9286,0 -14.8923,0c2.1128,-3.4718 9.5487,-1.6205 12.1,-4.6538c2.2757,-1.6791 -2.5113,-6.722 2.7923,-6.5154z" fill="none" stroke-width="0.93077"/><path d="M209.1897,137.2852c2.1223,0 4.3103,-0.451 6.3668,0c5.7736,1.9896 13.8647,1.892 17.5087,7.1626c2.4936,3.3595 -1.2012,8.7787 -3.714,12.203c-1.7127,2.3334 -6.6554,3.1622 -7.9585,3.4487c-0.6685,0.2929 3.8827,-2.707 3.4487,-2.1223c-0.7237,0.9529 -3.4551,5.1157 -6.1015,5.8362c-1.7031,0.4659 -2.8576,-3.9527 -4.2445,-3.1833c-17.097,-0.3714 -25.0735,31.2397 -7.428,35.0173c7.4662,-4.2063 18.711,-4.634 24.4061,-10.6113c5.9317,0.7895 7.221,7.0417 8.489,11.6724c0.4924,1.8358 -3.8583,2.0873 -4.7751,3.9793c-0.9921,2.6889 1.7509,6.7923 -0.5305,8.7543c-4.9269,4.2339 -13.0679,4.114 -18.0393,7.4279c-5.9805,0.3025 -12.0258,0 -18.0392,0c-15.6538,-2.7387 -24.4294,-12.3568 -25.4672,-29.7117c0,-3.1834 0,-6.3667 0,-9.5501c7.5585,-17.9088 16.0019,-34.9325 36.0785,-40.323zM196.4561,145.7742c-7.3653,4.7762 -9.8186,14.7094 -14.8558,19.1004c-2.6964,30.4269 11.3838,48.7707 38.2007,40.323c6.1068,-1.9228 14.4993,-7.3239 15.917,-11.6725c-3.1144,-7.7887 -7.8545,-0.8075 -12.7336,1.0612c-10.9498,-0.693 -12.2773,6.3551 -21.2226,3.1834c-12.9055,-4.5767 -13.6239,-33.9807 -5.3057,-42.4453c9.3306,-9.494 18.8234,-1.8994 31.834,-3.1834c-0.7906,-3.2662 2.9128,-2.0395 2.1222,-5.3057c-5.3343,-8.9347 -25.2432,-6.7116 -33.9562,-1.0611z" fill="#000000" stroke-width="1.06113"/><path d="M230.4123,146.8353c0.7906,3.2662 -2.9128,2.0395 -2.1222,5.3057c-13.0106,1.284 -22.5034,-6.3106 -31.834,3.1834c-8.3182,8.4646 -7.5998,37.8686 5.3057,42.4453c8.9453,3.1717 10.2728,-3.8764 21.2226,-3.1834c4.8791,-1.8687 9.6192,-8.8499 12.7336,-1.0612c-1.4177,4.3486 -9.8102,9.7497 -15.917,11.6725c-26.8169,8.4477 -40.8971,-9.8961 -38.2007,-40.323c5.0372,-4.391 7.4905,-14.3242 14.8558,-19.1004c8.713,-5.6505 28.6219,-7.8736 33.9562,1.0611z" fill="#ff9400" stroke-width="1.06113"/><path d="M169.36815,140.29005c0.7942,0 1.5884,0 2.3826,0c0.301,5.2592 3.0425,8.0762 3.9709,12.7072c-1.5415,5.5451 -5.3417,6.2837 -8.7361,11.1188c5.7897,6.3877 14.255,10.1006 15.0897,21.4433c0,1.0587 0,2.1182 0,3.1768c-3.2744,13.4037 -7.9523,25.404 -19.0607,30.9738c-1.324,0 -2.6471,0 -3.971,0c-3.9067,-4.0354 -7.0851,-8.799 -9.5304,-14.2956c5.063,-5.0876 13.4799,-7.7903 13.5014,-15.0898c0.0262,-8.8378 -14.4942,-11.604 -15.0898,-21.4433c0,-1.324 0,-2.6471 0,-3.971c3.8797,-11.4754 9.4192,-21.2901 21.4434,-24.6202zM154.27835,154.58565c-0.228,9.7297 -1.9005,13.3648 3.1768,19.0607c3.4238,3.8416 9.0316,5.0043 10.3246,8.7362c2.6168,7.5544 -2.555,15.7887 -9.5304,19.855c0.8879,3.8773 1.7718,7.7585 5.5594,8.7362c7.8649,-8.2438 19.2775,-16.8251 15.0897,-30.1796c-2.6033,-8.3017 -16.1428,-10.4548 -16.6781,-18.2665c-0.4019,-5.8604 5.5085,-9.2445 10.3245,-9.5304c-1.3898,-3.1109 -1.6106,-7.39 -3.9709,-9.5304c-5.2918,3.18 -10.9695,5.9732 -14.2956,11.1188z" fill="#000000" stroke-width="0.7942"/><path d="M168.57395,143.46685c2.3603,2.1404 2.5811,6.4195 3.9709,9.5304c-4.816,0.2859 -10.7264,3.67 -10.3245,9.5304c0.5353,7.8117 14.0748,9.9648 16.6781,18.2665c4.1878,13.3545 -7.2248,21.9358 -15.0897,30.1796c-3.7876,-0.9777 -4.6715,-4.8589 -5.5594,-8.7362c6.9754,-4.0663 12.1472,-12.3006 9.5304,-19.855c-1.293,-3.7319 -6.9008,-4.8946 -10.3246,-8.7362c-5.0773,-5.6959 -3.4048,-9.331 -3.1768,-19.0607c3.3261,-5.1456 9.0038,-7.9388 14.2956,-11.1188z" fill="#ff9400" stroke-width="0.7942"/></g></g></svg>